<svg xmlns="http://www.w3.org/2000/svg" width="128" height="128" fill="none" viewBox="0 0 128 128" id="ai-image-generator">
  <path stroke="#000" stroke-linecap="round" stroke-width="7" d="M116 57V57C116 44.8888 116 38.8332 114.092 34.0314C111.348 27.1232 105.877 21.6521 98.9686 18.9076C94.1668 17 88.1112 17 76 17H58.5C40.2535 17 31.1302 17 24.4929 21.2284C21.1677 23.3468 18.3468 26.1677 16.2284 29.4929C12 36.1302 12 45.2535 12 63.5V63.5C12 81.7465 12 90.8698 16.2284 97.5071C18.3468 100.832 21.1677 103.653 24.4929 105.772C31.1302 110 40.2535 110 58.5 110H61.5"></path>
  <path stroke="#000" stroke-linecap="round" stroke-width="7" d="M116 57.7883C112.755 57.2698 109.422 57 106.023 57C74.786 57 49.0931 79.7918 46 109"></path>
  <path fill="#000" stroke="#000" stroke-width="7" d="M34 45.5C34 49.0899 36.9101 52 40.5 52C44.0899 52 47 49.0899 47 45.5C47 41.9102 44.0899 39 40.5 39C36.9101 39 34 41.9102 34 45.5Z"></path>
  <path fill="#000" d="M80 110C80 112.209 81.7909 114 84 114C86.2091 114 88 112.209 88 110C88 107.791 86.2091 106 84 106C81.7909 106 80 107.791 80 110Z"></path>
  <path stroke="#000" stroke-linejoin="round" stroke-width="7" d="M100.207 81.6284C100.941 80.1432 103.059 80.1432 103.793 81.6284L104.786 83.6371C106.47 87.046 108.91 90.0257 111.92 92.3495L113.95 93.917C114.987 94.7176 114.987 96.2824 113.95 97.083L111.92 98.6505C108.91 100.974 106.47 103.954 104.786 107.363L103.793 109.372C103.059 110.857 100.941 110.857 100.207 109.372L99.2144 107.363C97.5299 103.954 95.0899 100.974 92.0803 98.6505L90.0502 97.083C89.0133 96.2824 89.0133 94.7176 90.0502 93.917L92.0803 92.3495C95.0899 90.0257 97.5299 87.046 99.2144 83.6371L100.207 81.6284Z"></path>
</svg>
