<svg width="16" height="16" viewBox="0 0 16 16" fill="none" xmlns="http://www.w3.org/2000/svg">
<path d="M12.7917 0.5C13.51 0.5 14.1988 0.785341 14.7067 1.29325C15.2147 1.80116 15.5 2.49004 15.5 3.20833V12.7917C15.5 13.51 15.2147 14.1988 14.7067 14.7067C14.1988 15.2147 13.51 15.5 12.7917 15.5H3.20833C2.49004 15.5 1.80116 15.2147 1.29325 14.7067C0.785341 14.1988 0.5 13.51 0.5 12.7917V3.20833C0.5 2.49004 0.785341 1.80116 1.29325 1.29325C1.80116 0.785341 2.49004 0.5 3.20833 0.5H12.7917ZM13.275 14.1675L8.4375 9.42917C8.33197 9.32573 8.1932 9.26304 8.04583 9.2522C7.89846 9.24137 7.75202 9.28311 7.6325 9.37L7.5625 9.42833L2.72333 14.1675C2.875 14.2208 3.03833 14.25 3.20833 14.25H12.7917C12.9608 14.25 13.1242 14.2208 13.275 14.1675ZM12.7917 1.75H3.20833C2.82156 1.75 2.45063 1.90365 2.17714 2.17714C1.90365 2.45063 1.75 2.82156 1.75 3.20833V12.7917C1.75 12.965 1.78 13.1317 1.83583 13.2867L6.68833 8.53583C7.02098 8.21019 7.46286 8.01993 7.92802 8.00206C8.39318 7.98419 8.84836 8.14 9.205 8.43917L9.31167 8.53583L14.1633 13.2875C14.2192 13.1325 14.25 12.9658 14.25 12.7917V3.20833C14.25 2.82156 14.0964 2.45063 13.8229 2.17714C13.5494 1.90365 13.1784 1.75 12.7917 1.75ZM10.71 3.41667C11.2077 3.41667 11.6851 3.61439 12.037 3.96633C12.3889 4.31827 12.5867 4.79561 12.5867 5.29333C12.5867 5.79106 12.3889 6.26839 12.037 6.62034C11.6851 6.97228 11.2077 7.17 10.71 7.17C10.2123 7.17 9.73494 6.97228 9.383 6.62034C9.03105 6.26839 8.83333 5.79106 8.83333 5.29333C8.83333 4.79561 9.03105 4.31827 9.383 3.96633C9.73494 3.61439 10.2123 3.41667 10.71 3.41667ZM10.71 4.66667C10.5438 4.66667 10.3844 4.73269 10.2669 4.85021C10.1494 4.96774 10.0833 5.12713 10.0833 5.29333C10.0833 5.45954 10.1494 5.61893 10.2669 5.73645C10.3844 5.85398 10.5438 5.92 10.71 5.92C10.8762 5.92 11.0356 5.85398 11.1531 5.73645C11.2706 5.61893 11.3367 5.45954 11.3367 5.29333C11.3367 5.12713 11.2706 4.96774 11.1531 4.85021C11.0356 4.73269 10.8762 4.66667 10.71 4.66667Z" fill="#444791"/>
</svg>
