<svg xmlns="http://www.w3.org/2000/svg" fill-rule="evenodd" stroke-linejoin="round" stroke-miterlimit="2" clip-rule="evenodd" viewBox="0 0 24 24" id="scan">
  <path d="M9 2l-4 0c-.796 0-1.559.316-2.121.879-.563.562-.879 1.325-.879 2.121 0 1.063 0 2.466 0 4 0 .552.448 1 1 1 .552 0 1-.448 1-1l0-4c0-.265.105-.52.293-.707.187-.188.442-.293.707-.293l4 0c.552 0 1-.448 1-1 0-.552-.448-1-1-1zM2 14l0 5c0 .796.316 1.559.879 2.121.562.563 1.325.879 2.121.879.827 0 1.86 0 3 0 .552 0 1-.448 1-1 0-.552-.448-1-1-1l-3 0c-.265 0-.52-.105-.707-.293-.188-.187-.293-.442-.293-.707l0-5c0-.552-.448-1-1-1-.552 0-1 .448-1 1zM15 22l4 0c.796 0 1.559-.316 2.121-.879.563-.562.879-1.325.879-2.121 0-1.063 0-2.466 0-4 0-.552-.448-1-1-1-.552 0-1 .448-1 1l0 4c0 .265-.105.52-.293.707-.187.188-.442.293-.707.293l-4 0c-.552 0-1 .448-1 1 0 .552.448 1 1 1zM22 9l0-4c0-.796-.316-1.559-.879-2.121-.562-.563-1.325-.879-2.121-.879-1.063 0-2.466 0-4 0-.552 0-1 .448-1 1 0 .552.448 1 1 1l4 0c.265 0 .52.105.707.293.188.187.293.442.293.707l0 4c0 .552.448 1 1 1 .552 0 1-.448 1-1zM7 13l10 0c.552 0 1-.448 1-1 0-.552-.448-1-1-1l-10 0c-.552 0-1 .448-1 1 0 .552.448 1 1 1z"></path>
</svg>
